<svg width="27" height="18" viewBox="0 0 27 18" fill="none" xmlns="http://www.w3.org/2000/svg">
<g clip-path="url(#clip0_502_519)">
<path fill-rule="evenodd" clip-rule="evenodd" d="M10.7844 12.3248V5.10957C13.4739 6.31484 15.5569 7.47915 18.0204 8.73443C15.9885 9.80763 13.4739 11.0118 10.7844 12.3248ZM25.7729 1.52112C25.3089 0.939001 24.5182 0.48587 23.6764 0.335853C21.2021 -0.11164 5.76583 -0.112913 3.29286 0.335853C2.6178 0.456376 2.01668 0.747697 1.5003 1.20032C-0.675489 3.12362 0.00629934 13.4377 0.530749 15.1084C0.751285 15.8315 1.03638 16.3531 1.39543 16.6954C1.85802 17.148 2.49138 17.4597 3.21888 17.5995C5.25616 18.0008 15.7519 18.2252 23.6334 17.6597C24.3595 17.5392 25.0023 17.2175 25.5093 16.7457C27.521 14.8301 27.3839 3.93679 25.7729 1.52112Z" fill="#373737"/>
</g>
<defs>
<clipPath id="clip0_502_519">
<rect width="27" height="18" fill="white" transform="translate(0 -0.000244141)"/>
</clipPath>
</defs>
</svg>
